<?xml version="1.0" encoding="UTF-8" standalone="no"?>
<!-- This is a Stata 19.5 generated SVG file (http://www.stata.com) -->

<svg version="1.1" width="7.500in" height="4.500in" viewBox="0 0 5400 3240" xmlns="http://www.w3.org/2000/svg" xmlns:xlink="http://www.w3.org/1999/xlink">
	<desc>Stata Graph - g_cover_age</desc>
	<style>
		@media (prefers-reduced-motion: no-preference) {
			line[style*="stroke:#D41159"] {
				opacity: 0;
				animation: reveal-reference 9s ease-in-out infinite;
			}

			line[style*="stroke:#000000"][style*="stroke-width:25.92"] {
				stroke-dasharray: 1800;
				stroke-dashoffset: 1800;
				opacity: 0;
				animation: extend-intervals 9s cubic-bezier(.35, 0, .2, 1) infinite;
			}

			circle {
				transform-box: fill-box;
				transform-origin: center;
				animation: reveal-estimates 9s cubic-bezier(.2, .85, .25, 1) infinite;
			}

			text[x="4295.19"] {
				animation: reveal-values 9s ease-in-out infinite;
			}
		}

		@keyframes reveal-reference {
			0%, 12% { opacity: 0; }
			20%, 80% { opacity: 1; }
			94%, 100% { opacity: 0; }
		}

		@keyframes extend-intervals {
			0%, 18% { stroke-dashoffset: 1800; opacity: 0; }
			23% { opacity: 1; }
			40%, 80% { stroke-dashoffset: 0; opacity: 1; }
			94%, 100% { stroke-dashoffset: -1800; opacity: 0; }
		}

		@keyframes reveal-estimates {
			0%, 32% { opacity: 0; transform: scale(0); }
			42%, 80% { opacity: 1; transform: scale(1); }
			94%, 100% { opacity: 0; transform: scale(.7); }
		}

		@keyframes reveal-values {
			0%, 39% { opacity: 0; }
			49%, 80% { opacity: 1; }
			94%, 100% { opacity: 0; }
		}
	</style>
	<rect x="0" y="0" width="5400" height="3240" style="fill:#FFFFFF;stroke:none"/>
	<rect x="0.00" y="0.00" width="5400.00" height="3240.00" style="fill:#FFFFFF"/>
	<rect x="3.24" y="3.24" width="5393.52" height="3233.52" style="fill:none;stroke:#FFFFFF;stroke-width:6.48"/>
	<rect x="1070.89" y="730.01" width="3810.71" height="1829.42" style="fill:#FFFFFF"/>
	<rect x="1074.13" y="733.25" width="3804.23" height="1822.94" style="fill:none;stroke:#FFFFFF;stroke-width:6.48"/>
	<line x1="1070.89" y1="859.61" x2="1135.69" y2="859.61" style="stroke:#F0F0F0;stroke-width:9.72"/>
	<line x1="1168.09" y1="859.61" x2="1232.89" y2="859.61" style="stroke:#F0F0F0;stroke-width:9.72"/>
	<line x1="1265.29" y1="859.61" x2="1330.09" y2="859.61" style="stroke:#F0F0F0;stroke-width:9.72"/>
	<line x1="1362.49" y1="859.61" x2="1427.29" y2="859.61" style="stroke:#F0F0F0;stroke-width:9.72"/>
	<line x1="1459.69" y1="859.61" x2="1524.49" y2="859.61" style="stroke:#F0F0F0;stroke-width:9.72"/>
	<line x1="1556.89" y1="859.61" x2="1621.69" y2="859.61" style="stroke:#F0F0F0;stroke-width:9.72"/>
	<line x1="1654.09" y1="859.61" x2="1718.89" y2="859.61" style="stroke:#F0F0F0;stroke-width:9.72"/>
	<line x1="1751.29" y1="859.61" x2="1816.09" y2="859.61" style="stroke:#F0F0F0;stroke-width:9.72"/>
	<line x1="1848.49" y1="859.61" x2="1913.29" y2="859.61" style="stroke:#F0F0F0;stroke-width:9.72"/>
	<line x1="1945.69" y1="859.61" x2="2010.49" y2="859.61" style="stroke:#F0F0F0;stroke-width:9.72"/>
	<line x1="2042.89" y1="859.61" x2="2107.69" y2="859.61" style="stroke:#F0F0F0;stroke-width:9.72"/>
	<line x1="2140.09" y1="859.61" x2="2204.89" y2="859.61" style="stroke:#F0F0F0;stroke-width:9.72"/>
	<line x1="2237.29" y1="859.61" x2="2302.09" y2="859.61" style="stroke:#F0F0F0;stroke-width:9.72"/>
	<line x1="2334.49" y1="859.61" x2="2399.29" y2="859.61" style="stroke:#F0F0F0;stroke-width:9.72"/>
	<line x1="2431.69" y1="859.61" x2="2496.49" y2="859.61" style="stroke:#F0F0F0;stroke-width:9.72"/>
	<line x1="2528.89" y1="859.61" x2="2593.69" y2="859.61" style="stroke:#F0F0F0;stroke-width:9.72"/>
	<line x1="2626.09" y1="859.61" x2="2690.89" y2="859.61" style="stroke:#F0F0F0;stroke-width:9.72"/>
	<line x1="2723.29" y1="859.61" x2="2788.09" y2="859.61" style="stroke:#F0F0F0;stroke-width:9.72"/>
	<line x1="2820.49" y1="859.61" x2="2885.29" y2="859.61" style="stroke:#F0F0F0;stroke-width:9.72"/>
	<line x1="2917.69" y1="859.61" x2="2982.49" y2="859.61" style="stroke:#F0F0F0;stroke-width:9.72"/>
	<line x1="3014.89" y1="859.61" x2="3079.69" y2="859.61" style="stroke:#F0F0F0;stroke-width:9.72"/>
	<line x1="3112.09" y1="859.61" x2="3176.89" y2="859.61" style="stroke:#F0F0F0;stroke-width:9.72"/>
	<line x1="3209.29" y1="859.61" x2="3274.09" y2="859.61" style="stroke:#F0F0F0;stroke-width:9.72"/>
	<line x1="3306.49" y1="859.61" x2="3371.29" y2="859.61" style="stroke:#F0F0F0;stroke-width:9.72"/>
	<line x1="3403.69" y1="859.61" x2="3468.49" y2="859.61" style="stroke:#F0F0F0;stroke-width:9.72"/>
	<line x1="3500.89" y1="859.61" x2="3565.69" y2="859.61" style="stroke:#F0F0F0;stroke-width:9.72"/>
	<line x1="3598.09" y1="859.61" x2="3662.89" y2="859.61" style="stroke:#F0F0F0;stroke-width:9.72"/>
	<line x1="3695.29" y1="859.61" x2="3760.09" y2="859.61" style="stroke:#F0F0F0;stroke-width:9.72"/>
	<line x1="3792.49" y1="859.61" x2="3857.29" y2="859.61" style="stroke:#F0F0F0;stroke-width:9.72"/>
	<line x1="3889.69" y1="859.61" x2="3954.49" y2="859.61" style="stroke:#F0F0F0;stroke-width:9.72"/>
	<line x1="3986.89" y1="859.61" x2="4051.69" y2="859.61" style="stroke:#F0F0F0;stroke-width:9.72"/>
	<line x1="4084.09" y1="859.61" x2="4148.89" y2="859.61" style="stroke:#F0F0F0;stroke-width:9.72"/>
	<line x1="4181.29" y1="859.61" x2="4246.09" y2="859.61" style="stroke:#F0F0F0;stroke-width:9.72"/>
	<line x1="4278.49" y1="859.61" x2="4343.29" y2="859.61" style="stroke:#F0F0F0;stroke-width:9.72"/>
	<line x1="4375.69" y1="859.61" x2="4440.49" y2="859.61" style="stroke:#F0F0F0;stroke-width:9.72"/>
	<line x1="4472.89" y1="859.61" x2="4537.69" y2="859.61" style="stroke:#F0F0F0;stroke-width:9.72"/>
	<line x1="4570.09" y1="859.61" x2="4634.89" y2="859.61" style="stroke:#F0F0F0;stroke-width:9.72"/>
	<line x1="4667.29" y1="859.61" x2="4732.09" y2="859.61" style="stroke:#F0F0F0;stroke-width:9.72"/>
	<line x1="4764.49" y1="859.61" x2="4829.29" y2="859.61" style="stroke:#F0F0F0;stroke-width:9.72"/>
	<line x1="4861.69" y1="859.61" x2="4881.60" y2="859.61" style="stroke:#F0F0F0;stroke-width:9.72"/>
	<line x1="1070.89" y1="2429.83" x2="1135.69" y2="2429.83" style="stroke:#F0F0F0;stroke-width:9.72"/>
	<line x1="1168.09" y1="2429.83" x2="1232.89" y2="2429.83" style="stroke:#F0F0F0;stroke-width:9.72"/>
	<line x1="1265.29" y1="2429.83" x2="1330.09" y2="2429.83" style="stroke:#F0F0F0;stroke-width:9.72"/>
	<line x1="1362.49" y1="2429.83" x2="1427.29" y2="2429.83" style="stroke:#F0F0F0;stroke-width:9.72"/>
	<line x1="1459.69" y1="2429.83" x2="1524.49" y2="2429.83" style="stroke:#F0F0F0;stroke-width:9.72"/>
	<line x1="1556.89" y1="2429.83" x2="1621.69" y2="2429.83" style="stroke:#F0F0F0;stroke-width:9.72"/>
	<line x1="1654.09" y1="2429.83" x2="1718.89" y2="2429.83" style="stroke:#F0F0F0;stroke-width:9.72"/>
	<line x1="1751.29" y1="2429.83" x2="1816.09" y2="2429.83" style="stroke:#F0F0F0;stroke-width:9.72"/>
	<line x1="1848.49" y1="2429.83" x2="1913.29" y2="2429.83" style="stroke:#F0F0F0;stroke-width:9.72"/>
	<line x1="1945.69" y1="2429.83" x2="2010.49" y2="2429.83" style="stroke:#F0F0F0;stroke-width:9.72"/>
	<line x1="2042.89" y1="2429.83" x2="2107.69" y2="2429.83" style="stroke:#F0F0F0;stroke-width:9.72"/>
	<line x1="2140.09" y1="2429.83" x2="2204.89" y2="2429.83" style="stroke:#F0F0F0;stroke-width:9.72"/>
	<line x1="2237.29" y1="2429.83" x2="2302.09" y2="2429.83" style="stroke:#F0F0F0;stroke-width:9.72"/>
	<line x1="2334.49" y1="2429.83" x2="2399.29" y2="2429.83" style="stroke:#F0F0F0;stroke-width:9.72"/>
	<line x1="2431.69" y1="2429.83" x2="2496.49" y2="2429.83" style="stroke:#F0F0F0;stroke-width:9.72"/>
	<line x1="2528.89" y1="2429.83" x2="2593.69" y2="2429.83" style="stroke:#F0F0F0;stroke-width:9.72"/>
	<line x1="2626.09" y1="2429.83" x2="2690.89" y2="2429.83" style="stroke:#F0F0F0;stroke-width:9.72"/>
	<line x1="2723.29" y1="2429.83" x2="2788.09" y2="2429.83" style="stroke:#F0F0F0;stroke-width:9.72"/>
	<line x1="2820.49" y1="2429.83" x2="2885.29" y2="2429.83" style="stroke:#F0F0F0;stroke-width:9.72"/>
	<line x1="2917.69" y1="2429.83" x2="2982.49" y2="2429.83" style="stroke:#F0F0F0;stroke-width:9.72"/>
	<line x1="3014.89" y1="2429.83" x2="3079.69" y2="2429.83" style="stroke:#F0F0F0;stroke-width:9.72"/>
	<line x1="3112.09" y1="2429.83" x2="3176.89" y2="2429.83" style="stroke:#F0F0F0;stroke-width:9.72"/>
	<line x1="3209.29" y1="2429.83" x2="3274.09" y2="2429.83" style="stroke:#F0F0F0;stroke-width:9.72"/>
	<line x1="3306.49" y1="2429.83" x2="3371.29" y2="2429.83" style="stroke:#F0F0F0;stroke-width:9.72"/>
	<line x1="3403.69" y1="2429.83" x2="3468.49" y2="2429.83" style="stroke:#F0F0F0;stroke-width:9.72"/>
	<line x1="3500.89" y1="2429.83" x2="3565.69" y2="2429.83" style="stroke:#F0F0F0;stroke-width:9.72"/>
	<line x1="3598.09" y1="2429.83" x2="3662.89" y2="2429.83" style="stroke:#F0F0F0;stroke-width:9.72"/>
	<line x1="3695.29" y1="2429.83" x2="3760.09" y2="2429.83" style="stroke:#F0F0F0;stroke-width:9.72"/>
	<line x1="3792.49" y1="2429.83" x2="3857.29" y2="2429.83" style="stroke:#F0F0F0;stroke-width:9.72"/>
	<line x1="3889.69" y1="2429.83" x2="3954.49" y2="2429.83" style="stroke:#F0F0F0;stroke-width:9.72"/>
	<line x1="3986.89" y1="2429.83" x2="4051.69" y2="2429.83" style="stroke:#F0F0F0;stroke-width:9.72"/>
	<line x1="4084.09" y1="2429.83" x2="4148.89" y2="2429.83" style="stroke:#F0F0F0;stroke-width:9.72"/>
	<line x1="4181.29" y1="2429.83" x2="4246.09" y2="2429.83" style="stroke:#F0F0F0;stroke-width:9.72"/>
	<line x1="4278.49" y1="2429.83" x2="4343.29" y2="2429.83" style="stroke:#F0F0F0;stroke-width:9.72"/>
	<line x1="4375.69" y1="2429.83" x2="4440.49" y2="2429.83" style="stroke:#F0F0F0;stroke-width:9.72"/>
	<line x1="4472.89" y1="2429.83" x2="4537.69" y2="2429.83" style="stroke:#F0F0F0;stroke-width:9.72"/>
	<line x1="4570.09" y1="2429.83" x2="4634.89" y2="2429.83" style="stroke:#F0F0F0;stroke-width:9.72"/>
	<line x1="4667.29" y1="2429.83" x2="4732.09" y2="2429.83" style="stroke:#F0F0F0;stroke-width:9.72"/>
	<line x1="4764.49" y1="2429.83" x2="4829.29" y2="2429.83" style="stroke:#F0F0F0;stroke-width:9.72"/>
	<line x1="4861.69" y1="2429.83" x2="4881.60" y2="2429.83" style="stroke:#F0F0F0;stroke-width:9.72"/>
	<line x1="1409.06" y1="2559.43" x2="1409.06" y2="2494.63" style="stroke:#E0E0E0;stroke-width:4.86"/>
	<line x1="1409.06" y1="2462.23" x2="1409.06" y2="2397.43" style="stroke:#E0E0E0;stroke-width:4.86"/>
	<line x1="1409.06" y1="2365.03" x2="1409.06" y2="2300.23" style="stroke:#E0E0E0;stroke-width:4.86"/>
	<line x1="1409.06" y1="2267.83" x2="1409.06" y2="2203.03" style="stroke:#E0E0E0;stroke-width:4.86"/>
	<line x1="1409.06" y1="2170.63" x2="1409.06" y2="2105.83" style="stroke:#E0E0E0;stroke-width:4.86"/>
	<line x1="1409.06" y1="2073.43" x2="1409.06" y2="2008.63" style="stroke:#E0E0E0;stroke-width:4.86"/>
	<line x1="1409.06" y1="1976.23" x2="1409.06" y2="1911.43" style="stroke:#E0E0E0;stroke-width:4.86"/>
	<line x1="1409.06" y1="1879.03" x2="1409.06" y2="1814.23" style="stroke:#E0E0E0;stroke-width:4.86"/>
	<line x1="1409.06" y1="1781.83" x2="1409.06" y2="1717.03" style="stroke:#E0E0E0;stroke-width:4.86"/>
	<line x1="1409.06" y1="1684.63" x2="1409.06" y2="1619.83" style="stroke:#E0E0E0;stroke-width:4.86"/>
	<line x1="1409.06" y1="1587.43" x2="1409.06" y2="1522.63" style="stroke:#E0E0E0;stroke-width:4.86"/>
	<line x1="1409.06" y1="1490.23" x2="1409.06" y2="1425.43" style="stroke:#E0E0E0;stroke-width:4.86"/>
	<line x1="1409.06" y1="1393.03" x2="1409.06" y2="1328.23" style="stroke:#E0E0E0;stroke-width:4.86"/>
	<line x1="1409.06" y1="1295.83" x2="1409.06" y2="1231.03" style="stroke:#E0E0E0;stroke-width:4.86"/>
	<line x1="1409.06" y1="1198.63" x2="1409.06" y2="1133.83" style="stroke:#E0E0E0;stroke-width:4.86"/>
	<line x1="1409.06" y1="1101.43" x2="1409.06" y2="1036.63" style="stroke:#E0E0E0;stroke-width:4.86"/>
	<line x1="1409.06" y1="1004.23" x2="1409.06" y2="939.43" style="stroke:#E0E0E0;stroke-width:4.86"/>
	<line x1="1409.06" y1="907.03" x2="1409.06" y2="842.23" style="stroke:#E0E0E0;stroke-width:4.86"/>
	<line x1="1409.06" y1="809.83" x2="1409.06" y2="745.03" style="stroke:#E0E0E0;stroke-width:4.86"/>
	<line x1="1826.38" y1="2559.43" x2="1826.38" y2="2494.63" style="stroke:#E0E0E0;stroke-width:4.86"/>
	<line x1="1826.38" y1="2462.23" x2="1826.38" y2="2397.43" style="stroke:#E0E0E0;stroke-width:4.86"/>
	<line x1="1826.38" y1="2365.03" x2="1826.38" y2="2300.23" style="stroke:#E0E0E0;stroke-width:4.86"/>
	<line x1="1826.38" y1="2267.83" x2="1826.38" y2="2203.03" style="stroke:#E0E0E0;stroke-width:4.86"/>
	<line x1="1826.38" y1="2170.63" x2="1826.38" y2="2105.83" style="stroke:#E0E0E0;stroke-width:4.86"/>
	<line x1="1826.38" y1="2073.43" x2="1826.38" y2="2008.63" style="stroke:#E0E0E0;stroke-width:4.86"/>
	<line x1="1826.38" y1="1976.23" x2="1826.38" y2="1911.43" style="stroke:#E0E0E0;stroke-width:4.86"/>
	<line x1="1826.38" y1="1879.03" x2="1826.38" y2="1814.23" style="stroke:#E0E0E0;stroke-width:4.86"/>
	<line x1="1826.38" y1="1781.83" x2="1826.38" y2="1717.03" style="stroke:#E0E0E0;stroke-width:4.86"/>
	<line x1="1826.38" y1="1684.63" x2="1826.38" y2="1619.83" style="stroke:#E0E0E0;stroke-width:4.86"/>
	<line x1="1826.38" y1="1587.43" x2="1826.38" y2="1522.63" style="stroke:#E0E0E0;stroke-width:4.86"/>
	<line x1="1826.38" y1="1490.23" x2="1826.38" y2="1425.43" style="stroke:#E0E0E0;stroke-width:4.86"/>
	<line x1="1826.38" y1="1393.03" x2="1826.38" y2="1328.23" style="stroke:#E0E0E0;stroke-width:4.86"/>
	<line x1="1826.38" y1="1295.83" x2="1826.38" y2="1231.03" style="stroke:#E0E0E0;stroke-width:4.86"/>
	<line x1="1826.38" y1="1198.63" x2="1826.38" y2="1133.83" style="stroke:#E0E0E0;stroke-width:4.86"/>
	<line x1="1826.38" y1="1101.43" x2="1826.38" y2="1036.63" style="stroke:#E0E0E0;stroke-width:4.86"/>
	<line x1="1826.38" y1="1004.23" x2="1826.38" y2="939.43" style="stroke:#E0E0E0;stroke-width:4.86"/>
	<line x1="1826.38" y1="907.03" x2="1826.38" y2="842.23" style="stroke:#E0E0E0;stroke-width:4.86"/>
	<line x1="1826.38" y1="809.83" x2="1826.38" y2="745.03" style="stroke:#E0E0E0;stroke-width:4.86"/>
	<line x1="2243.70" y1="2559.43" x2="2243.70" y2="2494.63" style="stroke:#E0E0E0;stroke-width:4.86"/>
	<line x1="2243.70" y1="2462.23" x2="2243.70" y2="2397.43" style="stroke:#E0E0E0;stroke-width:4.86"/>
	<line x1="2243.70" y1="2365.03" x2="2243.70" y2="2300.23" style="stroke:#E0E0E0;stroke-width:4.86"/>
	<line x1="2243.70" y1="2267.83" x2="2243.70" y2="2203.03" style="stroke:#E0E0E0;stroke-width:4.86"/>
	<line x1="2243.70" y1="2170.63" x2="2243.70" y2="2105.83" style="stroke:#E0E0E0;stroke-width:4.86"/>
	<line x1="2243.70" y1="2073.43" x2="2243.70" y2="2008.63" style="stroke:#E0E0E0;stroke-width:4.86"/>
	<line x1="2243.70" y1="1976.23" x2="2243.70" y2="1911.43" style="stroke:#E0E0E0;stroke-width:4.86"/>
	<line x1="2243.70" y1="1879.03" x2="2243.70" y2="1814.23" style="stroke:#E0E0E0;stroke-width:4.86"/>
	<line x1="2243.70" y1="1781.83" x2="2243.70" y2="1717.03" style="stroke:#E0E0E0;stroke-width:4.86"/>
	<line x1="2243.70" y1="1684.63" x2="2243.70" y2="1619.83" style="stroke:#E0E0E0;stroke-width:4.86"/>
	<line x1="2243.70" y1="1587.43" x2="2243.70" y2="1522.63" style="stroke:#E0E0E0;stroke-width:4.86"/>
	<line x1="2243.70" y1="1490.23" x2="2243.70" y2="1425.43" style="stroke:#E0E0E0;stroke-width:4.86"/>
	<line x1="2243.70" y1="1393.03" x2="2243.70" y2="1328.23" style="stroke:#E0E0E0;stroke-width:4.86"/>
	<line x1="2243.70" y1="1295.83" x2="2243.70" y2="1231.03" style="stroke:#E0E0E0;stroke-width:4.86"/>
	<line x1="2243.70" y1="1198.63" x2="2243.70" y2="1133.83" style="stroke:#E0E0E0;stroke-width:4.86"/>
	<line x1="2243.70" y1="1101.43" x2="2243.70" y2="1036.63" style="stroke:#E0E0E0;stroke-width:4.86"/>
	<line x1="2243.70" y1="1004.23" x2="2243.70" y2="939.43" style="stroke:#E0E0E0;stroke-width:4.86"/>
	<line x1="2243.70" y1="907.03" x2="2243.70" y2="842.23" style="stroke:#E0E0E0;stroke-width:4.86"/>
	<line x1="2243.70" y1="809.83" x2="2243.70" y2="745.03" style="stroke:#E0E0E0;stroke-width:4.86"/>
	<line x1="2661.02" y1="2559.43" x2="2661.02" y2="2494.63" style="stroke:#E0E0E0;stroke-width:4.86"/>
	<line x1="2661.02" y1="2462.23" x2="2661.02" y2="2397.43" style="stroke:#E0E0E0;stroke-width:4.86"/>
	<line x1="2661.02" y1="2365.03" x2="2661.02" y2="2300.23" style="stroke:#E0E0E0;stroke-width:4.86"/>
	<line x1="2661.02" y1="2267.83" x2="2661.02" y2="2203.03" style="stroke:#E0E0E0;stroke-width:4.86"/>
	<line x1="2661.02" y1="2170.63" x2="2661.02" y2="2105.83" style="stroke:#E0E0E0;stroke-width:4.86"/>
	<line x1="2661.02" y1="2073.43" x2="2661.02" y2="2008.63" style="stroke:#E0E0E0;stroke-width:4.86"/>
	<line x1="2661.02" y1="1976.23" x2="2661.02" y2="1911.43" style="stroke:#E0E0E0;stroke-width:4.86"/>
	<line x1="2661.02" y1="1879.03" x2="2661.02" y2="1814.23" style="stroke:#E0E0E0;stroke-width:4.86"/>
	<line x1="2661.02" y1="1781.83" x2="2661.02" y2="1717.03" style="stroke:#E0E0E0;stroke-width:4.86"/>
	<line x1="2661.02" y1="1684.63" x2="2661.02" y2="1619.83" style="stroke:#E0E0E0;stroke-width:4.86"/>
	<line x1="2661.02" y1="1587.43" x2="2661.02" y2="1522.63" style="stroke:#E0E0E0;stroke-width:4.86"/>
	<line x1="2661.02" y1="1490.23" x2="2661.02" y2="1425.43" style="stroke:#E0E0E0;stroke-width:4.86"/>
	<line x1="2661.02" y1="1393.03" x2="2661.02" y2="1328.23" style="stroke:#E0E0E0;stroke-width:4.86"/>
	<line x1="2661.02" y1="1295.83" x2="2661.02" y2="1231.03" style="stroke:#E0E0E0;stroke-width:4.86"/>
	<line x1="2661.02" y1="1198.63" x2="2661.02" y2="1133.83" style="stroke:#E0E0E0;stroke-width:4.86"/>
	<line x1="2661.02" y1="1101.43" x2="2661.02" y2="1036.63" style="stroke:#E0E0E0;stroke-width:4.86"/>
	<line x1="2661.02" y1="1004.23" x2="2661.02" y2="939.43" style="stroke:#E0E0E0;stroke-width:4.86"/>
	<line x1="2661.02" y1="907.03" x2="2661.02" y2="842.23" style="stroke:#E0E0E0;stroke-width:4.86"/>
	<line x1="2661.02" y1="809.83" x2="2661.02" y2="745.03" style="stroke:#E0E0E0;stroke-width:4.86"/>
	<line x1="3078.34" y1="2559.43" x2="3078.34" y2="2494.63" style="stroke:#E0E0E0;stroke-width:4.86"/>
	<line x1="3078.34" y1="2462.23" x2="3078.34" y2="2397.43" style="stroke:#E0E0E0;stroke-width:4.86"/>
	<line x1="3078.34" y1="2365.03" x2="3078.34" y2="2300.23" style="stroke:#E0E0E0;stroke-width:4.86"/>
	<line x1="3078.34" y1="2267.83" x2="3078.34" y2="2203.03" style="stroke:#E0E0E0;stroke-width:4.86"/>
	<line x1="3078.34" y1="2170.63" x2="3078.34" y2="2105.83" style="stroke:#E0E0E0;stroke-width:4.86"/>
	<line x1="3078.34" y1="2073.43" x2="3078.34" y2="2008.63" style="stroke:#E0E0E0;stroke-width:4.86"/>
	<line x1="3078.34" y1="1976.23" x2="3078.34" y2="1911.43" style="stroke:#E0E0E0;stroke-width:4.86"/>
	<line x1="3078.34" y1="1879.03" x2="3078.34" y2="1814.23" style="stroke:#E0E0E0;stroke-width:4.86"/>
	<line x1="3078.34" y1="1781.83" x2="3078.34" y2="1717.03" style="stroke:#E0E0E0;stroke-width:4.86"/>
	<line x1="3078.34" y1="1684.63" x2="3078.34" y2="1619.83" style="stroke:#E0E0E0;stroke-width:4.86"/>
	<line x1="3078.34" y1="1587.43" x2="3078.34" y2="1522.63" style="stroke:#E0E0E0;stroke-width:4.86"/>
	<line x1="3078.34" y1="1490.23" x2="3078.34" y2="1425.43" style="stroke:#E0E0E0;stroke-width:4.86"/>
	<line x1="3078.34" y1="1393.03" x2="3078.34" y2="1328.23" style="stroke:#E0E0E0;stroke-width:4.86"/>
	<line x1="3078.34" y1="1295.83" x2="3078.34" y2="1231.03" style="stroke:#E0E0E0;stroke-width:4.86"/>
	<line x1="3078.34" y1="1198.63" x2="3078.34" y2="1133.83" style="stroke:#E0E0E0;stroke-width:4.86"/>
	<line x1="3078.34" y1="1101.43" x2="3078.34" y2="1036.63" style="stroke:#E0E0E0;stroke-width:4.86"/>
	<line x1="3078.34" y1="1004.23" x2="3078.34" y2="939.43" style="stroke:#E0E0E0;stroke-width:4.86"/>
	<line x1="3078.34" y1="907.03" x2="3078.34" y2="842.23" style="stroke:#E0E0E0;stroke-width:4.86"/>
	<line x1="3078.34" y1="809.83" x2="3078.34" y2="745.03" style="stroke:#E0E0E0;stroke-width:4.86"/>
	<line x1="3495.66" y1="2559.43" x2="3495.66" y2="2494.63" style="stroke:#E0E0E0;stroke-width:4.86"/>
	<line x1="3495.66" y1="2462.23" x2="3495.66" y2="2397.43" style="stroke:#E0E0E0;stroke-width:4.86"/>
	<line x1="3495.66" y1="2365.03" x2="3495.66" y2="2300.23" style="stroke:#E0E0E0;stroke-width:4.86"/>
	<line x1="3495.66" y1="2267.83" x2="3495.66" y2="2203.03" style="stroke:#E0E0E0;stroke-width:4.86"/>
	<line x1="3495.66" y1="2170.63" x2="3495.66" y2="2105.83" style="stroke:#E0E0E0;stroke-width:4.86"/>
	<line x1="3495.66" y1="2073.43" x2="3495.66" y2="2008.63" style="stroke:#E0E0E0;stroke-width:4.86"/>
	<line x1="3495.66" y1="1976.23" x2="3495.66" y2="1911.43" style="stroke:#E0E0E0;stroke-width:4.86"/>
	<line x1="3495.66" y1="1879.03" x2="3495.66" y2="1814.23" style="stroke:#E0E0E0;stroke-width:4.86"/>
	<line x1="3495.66" y1="1781.83" x2="3495.66" y2="1717.03" style="stroke:#E0E0E0;stroke-width:4.86"/>
	<line x1="3495.66" y1="1684.63" x2="3495.66" y2="1619.83" style="stroke:#E0E0E0;stroke-width:4.86"/>
	<line x1="3495.66" y1="1587.43" x2="3495.66" y2="1522.63" style="stroke:#E0E0E0;stroke-width:4.86"/>
	<line x1="3495.66" y1="1490.23" x2="3495.66" y2="1425.43" style="stroke:#E0E0E0;stroke-width:4.86"/>
	<line x1="3495.66" y1="1393.03" x2="3495.66" y2="1328.23" style="stroke:#E0E0E0;stroke-width:4.86"/>
	<line x1="3495.66" y1="1295.83" x2="3495.66" y2="1231.03" style="stroke:#E0E0E0;stroke-width:4.86"/>
	<line x1="3495.66" y1="1198.63" x2="3495.66" y2="1133.83" style="stroke:#E0E0E0;stroke-width:4.86"/>
	<line x1="3495.66" y1="1101.43" x2="3495.66" y2="1036.63" style="stroke:#E0E0E0;stroke-width:4.86"/>
	<line x1="3495.66" y1="1004.23" x2="3495.66" y2="939.43" style="stroke:#E0E0E0;stroke-width:4.86"/>
	<line x1="3495.66" y1="907.03" x2="3495.66" y2="842.23" style="stroke:#E0E0E0;stroke-width:4.86"/>
	<line x1="3495.66" y1="809.83" x2="3495.66" y2="745.03" style="stroke:#E0E0E0;stroke-width:4.86"/>
	<line x1="3912.98" y1="2559.43" x2="3912.98" y2="2494.63" style="stroke:#E0E0E0;stroke-width:4.86"/>
	<line x1="3912.98" y1="2462.23" x2="3912.98" y2="2397.43" style="stroke:#E0E0E0;stroke-width:4.86"/>
	<line x1="3912.98" y1="2365.03" x2="3912.98" y2="2300.23" style="stroke:#E0E0E0;stroke-width:4.86"/>
	<line x1="3912.98" y1="2267.83" x2="3912.98" y2="2203.03" style="stroke:#E0E0E0;stroke-width:4.86"/>
	<line x1="3912.98" y1="2170.63" x2="3912.98" y2="2105.83" style="stroke:#E0E0E0;stroke-width:4.86"/>
	<line x1="3912.98" y1="2073.43" x2="3912.98" y2="2008.63" style="stroke:#E0E0E0;stroke-width:4.86"/>
	<line x1="3912.98" y1="1976.23" x2="3912.98" y2="1911.43" style="stroke:#E0E0E0;stroke-width:4.86"/>
	<line x1="3912.98" y1="1879.03" x2="3912.98" y2="1814.23" style="stroke:#E0E0E0;stroke-width:4.86"/>
	<line x1="3912.98" y1="1781.83" x2="3912.98" y2="1717.03" style="stroke:#E0E0E0;stroke-width:4.86"/>
	<line x1="3912.98" y1="1684.63" x2="3912.98" y2="1619.83" style="stroke:#E0E0E0;stroke-width:4.86"/>
	<line x1="3912.98" y1="1587.43" x2="3912.98" y2="1522.63" style="stroke:#E0E0E0;stroke-width:4.86"/>
	<line x1="3912.98" y1="1490.23" x2="3912.98" y2="1425.43" style="stroke:#E0E0E0;stroke-width:4.86"/>
	<line x1="3912.98" y1="1393.03" x2="3912.98" y2="1328.23" style="stroke:#E0E0E0;stroke-width:4.86"/>
	<line x1="3912.98" y1="1295.83" x2="3912.98" y2="1231.03" style="stroke:#E0E0E0;stroke-width:4.86"/>
	<line x1="3912.98" y1="1198.63" x2="3912.98" y2="1133.83" style="stroke:#E0E0E0;stroke-width:4.86"/>
	<line x1="3912.98" y1="1101.43" x2="3912.98" y2="1036.63" style="stroke:#E0E0E0;stroke-width:4.86"/>
	<line x1="3912.98" y1="1004.23" x2="3912.98" y2="939.43" style="stroke:#E0E0E0;stroke-width:4.86"/>
	<line x1="3912.98" y1="907.03" x2="3912.98" y2="842.23" style="stroke:#E0E0E0;stroke-width:4.86"/>
	<line x1="3912.98" y1="809.83" x2="3912.98" y2="745.03" style="stroke:#E0E0E0;stroke-width:4.86"/>
	<line x1="3912.98" y1="2559.43" x2="3912.98" y2="2494.63" style="stroke:#D41159;stroke-width:8.10"/>
	<line x1="3912.98" y1="2462.23" x2="3912.98" y2="2397.43" style="stroke:#D41159;stroke-width:8.10"/>
	<line x1="3912.98" y1="2365.03" x2="3912.98" y2="2300.23" style="stroke:#D41159;stroke-width:8.10"/>
	<line x1="3912.98" y1="2267.83" x2="3912.98" y2="2203.03" style="stroke:#D41159;stroke-width:8.10"/>
	<line x1="3912.98" y1="2170.63" x2="3912.98" y2="2105.83" style="stroke:#D41159;stroke-width:8.10"/>
	<line x1="3912.98" y1="2073.43" x2="3912.98" y2="2008.63" style="stroke:#D41159;stroke-width:8.10"/>
	<line x1="3912.98" y1="1976.23" x2="3912.98" y2="1911.43" style="stroke:#D41159;stroke-width:8.10"/>
	<line x1="3912.98" y1="1879.03" x2="3912.98" y2="1814.23" style="stroke:#D41159;stroke-width:8.10"/>
	<line x1="3912.98" y1="1781.83" x2="3912.98" y2="1717.03" style="stroke:#D41159;stroke-width:8.10"/>
	<line x1="3912.98" y1="1684.63" x2="3912.98" y2="1619.83" style="stroke:#D41159;stroke-width:8.10"/>
	<line x1="3912.98" y1="1587.43" x2="3912.98" y2="1522.63" style="stroke:#D41159;stroke-width:8.10"/>
	<line x1="3912.98" y1="1490.23" x2="3912.98" y2="1425.43" style="stroke:#D41159;stroke-width:8.10"/>
	<line x1="3912.98" y1="1393.03" x2="3912.98" y2="1328.23" style="stroke:#D41159;stroke-width:8.10"/>
	<line x1="3912.98" y1="1295.83" x2="3912.98" y2="1231.03" style="stroke:#D41159;stroke-width:8.10"/>
	<line x1="3912.98" y1="1198.63" x2="3912.98" y2="1133.83" style="stroke:#D41159;stroke-width:8.10"/>
	<line x1="3912.98" y1="1101.43" x2="3912.98" y2="1036.63" style="stroke:#D41159;stroke-width:8.10"/>
	<line x1="3912.98" y1="1004.23" x2="3912.98" y2="939.43" style="stroke:#D41159;stroke-width:8.10"/>
	<line x1="3912.98" y1="907.03" x2="3912.98" y2="842.23" style="stroke:#D41159;stroke-width:8.10"/>
	<line x1="3912.98" y1="809.83" x2="3912.98" y2="745.03" style="stroke:#D41159;stroke-width:8.10"/>
	<line x1="3383.78" y1="859.61" x2="4101.47" y2="859.61" style="stroke:#000000;stroke-width:25.92"/>
	<line x1="4101.47" y1="876.49" x2="4101.47" y2="842.74" stroke-linecap="round" style="stroke:#000000;stroke-width:25.92"/>
	<line x1="3383.78" y1="876.49" x2="3383.78" y2="842.74" stroke-linecap="round" style="stroke:#000000;stroke-width:25.92"/>
	<line x1="1333.97" y1="2429.83" x2="2934.56" y2="2429.83" style="stroke:#000000;stroke-width:25.92"/>
	<line x1="2934.56" y1="2446.71" x2="2934.56" y2="2412.96" stroke-linecap="round" style="stroke:#000000;stroke-width:25.92"/>
	<line x1="1333.97" y1="2446.71" x2="1333.97" y2="2412.96" stroke-linecap="round" style="stroke:#000000;stroke-width:25.92"/>
	<circle cx="3742.54" cy="859.78" r="53.87" style="fill:#D41159"/>
	<circle cx="3742.54" cy="859.78" r="50.63" style="fill:none;stroke:#FFFFFF;stroke-width:6.48"/>
	<circle cx="2134.18" cy="2430.00" r="53.87" style="fill:#D41159"/>
	<circle cx="2134.18" cy="2430.00" r="50.63" style="fill:none;stroke:#FFFFFF;stroke-width:6.48"/>
	<text x="4295.19" y="899.05" style="font-family:'Helvetica';font-size:112.56px;fill:#000000">-0.20 h</text>
	<text x="4295.19" y="2469.27" style="font-family:'Helvetica';font-size:112.56px;fill:#000000">-2.13 h</text>
	<line x1="1070.89" y1="2559.43" x2="1070.89" y2="730.01" style="stroke:#000000;stroke-width:6.48"/>
	<text x="1048.44" y="899.05" style="font-family:'Helvetica';font-size:112.56px;fill:#000000" text-anchor="end">Ages 15–17</text>
	<text x="1048.44" y="2469.27" style="font-family:'Helvetica';font-size:112.56px;fill:#000000" text-anchor="end">Age 18</text>
	<line x1="1070.89" y1="2559.43" x2="4881.60" y2="2559.43" style="stroke:#000000;stroke-width:6.48"/>
	<line x1="1409.06" y1="2559.43" x2="1409.06" y2="2604.49" style="stroke:#000000;stroke-width:6.48"/>
	<text x="1409.06" y="2689.81" style="font-family:'Helvetica';font-size:89.94px;fill:#000000" text-anchor="middle">-3</text>
	<line x1="1826.38" y1="2559.43" x2="1826.38" y2="2604.49" style="stroke:#000000;stroke-width:6.48"/>
	<text x="1826.38" y="2689.81" style="font-family:'Helvetica';font-size:89.94px;fill:#000000" text-anchor="middle">-2.5</text>
	<line x1="2243.70" y1="2559.43" x2="2243.70" y2="2604.49" style="stroke:#000000;stroke-width:6.48"/>
	<text x="2243.70" y="2689.81" style="font-family:'Helvetica';font-size:89.94px;fill:#000000" text-anchor="middle">-2</text>
	<line x1="2661.02" y1="2559.43" x2="2661.02" y2="2604.49" style="stroke:#000000;stroke-width:6.48"/>
	<text x="2661.02" y="2689.81" style="font-family:'Helvetica';font-size:89.94px;fill:#000000" text-anchor="middle">-1.5</text>
	<line x1="3078.34" y1="2559.43" x2="3078.34" y2="2604.49" style="stroke:#000000;stroke-width:6.48"/>
	<text x="3078.34" y="2689.81" style="font-family:'Helvetica';font-size:89.94px;fill:#000000" text-anchor="middle">-1</text>
	<line x1="3495.66" y1="2559.43" x2="3495.66" y2="2604.49" style="stroke:#000000;stroke-width:6.48"/>
	<text x="3495.66" y="2689.81" style="font-family:'Helvetica';font-size:89.94px;fill:#000000" text-anchor="middle">-.5</text>
	<line x1="3912.98" y1="2559.43" x2="3912.98" y2="2604.49" style="stroke:#000000;stroke-width:6.48"/>
	<text x="3912.98" y="2689.81" style="font-family:'Helvetica';font-size:89.94px;fill:#000000" text-anchor="middle">0</text>
	<text x="2976.24" y="2824.81" style="font-family:'Helvetica';font-size:89.94px;fill:#000000" text-anchor="middle">Estimated change in weekly hours</text>
	<text x="1090.29" y="2941.06" style="font-family:'Helvetica';font-size:67.50px;fill:#808080">The age interaction is statistically significant. ENOE 2026 Q1.</text>
	<text x="2976.24" y="693.85" style="font-family:'Helvetica';font-size:112.56px;fill:#808080" text-anchor="middle">Weighted IPWRA estimates and 95% confidence intervals</text>
	<text x="2976.24" y="434.13" style="font-family:'Helvetica';font-size:157.44px;fill:#000000" text-anchor="middle">The response is concentrated at age 18</text>
</svg>
